<?xml version="1.0" encoding="utf-8"?>
<!-- Generator: Adobe Illustrator 24.0.2, SVG Export Plug-In . SVG Version: 6.00 Build 0)  -->
<svg version="1.1" id="Layer_1" xmlns="http://www.w3.org/2000/svg" xmlns:xlink="http://www.w3.org/1999/xlink" x="0px" y="0px"
	 viewBox="0 0 352.5 75.1" style="enable-background:new 0 0 352.5 75.1;" xml:space="preserve">
<style type="text/css">
	.st0{fill-rule:evenodd;clip-rule:evenodd;fill:#CC202A;}
	.st1{fill-rule:evenodd;clip-rule:evenodd;fill:#112E4F;}
	.st2{fill-rule:evenodd;clip-rule:evenodd;fill:#FFFFFF;}
	.st3{fill:#112E4F;}
	.st4{fill:#CC202A;}
</style>
<g>
	<g>
		<g>
			<g>
				<path class="st0" d="M28.1,46.8c1.7-0.5,3.5-0.9,5.4-1.2V1.5c-5.7,1.1-10.3,2.8-13.9,4.6v44.8h0.1
					C21.3,49.3,24.1,47.9,28.1,46.8z"/>
				<path class="st1" d="M80.1,56.3c-0.1-4.6-13.7-8.4-30.4-8.4s-30.3,3.8-30.4,8.4l0,0v9.5c7,1,17,2,29,2c14.4,0,24.6-0.7,31.8-1.7
					L80.1,56.3L80.1,56.3z"/>
				<g id="VxsX7h.tif_12_">
					<g>
						<path class="st2" d="M24.2,57.1c0.1,0,0.1,0,0.1,0c0.7,0,1.5-0.1,2.2-0.1c0.3,0,0.7,0,1,0c0,0,0.1,0,0.1-0.1
							c0.3-0.8,0.6-1.6,0.9-2.5c0.1-0.2,0.1-0.4,0.2-0.5c0,0,0-0.1,0-0.1c0.1,0.3,0.2,0.5,0.3,0.8c0.1,0.4,0.3,0.8,0.4,1.1
							c0.1,0.4,0.3,0.8,0.4,1.2c0,0.1,0.1,0.1,0.2,0.1c1,0,2.1,0.1,3.1,0.1c0,0,0.1,0,0.2,0c-0.1,0.1-0.1,0.1-0.2,0.2
							c-0.8,0.6-1.5,1.2-2.3,1.8c-0.2,0.1-0.2,0.1-0.1,0.3c0.2,0.7,0.4,1.5,0.6,2.2c0.1,0.2,0.1,0.5,0.2,0.7c0,0,0,0,0,0.1
							c-0.2-0.1-0.4-0.3-0.6-0.4c-0.4-0.3-0.8-0.6-1.3-0.8c-0.3-0.2-0.5-0.4-0.8-0.5c-0.1,0-0.1,0-0.2,0c-0.9,0.6-1.8,1.2-2.6,1.8
							c0,0,0,0-0.1,0c0-0.2,0.1-0.4,0.2-0.5c0.2-0.5,0.3-1.1,0.5-1.6c0.1-0.3,0.2-0.7,0.3-1c0-0.1,0-0.1,0-0.1
							c-0.6-0.5-1.2-1-1.8-1.4C24.8,57.5,24.5,57.3,24.2,57.1z"/>
					</g>
				</g>
				<g id="VxsX7h.tif_11_">
					<g>
						<path class="st2" d="M44.1,56.5c0.1,0,0.1,0,0.2,0c1,0,2-0.1,3-0.1c0.4,0,0.9,0,1.3-0.1c0,0,0.1,0,0.1-0.1
							c0.4-1.1,0.8-2.2,1.2-3.3c0.1-0.3,0.2-0.5,0.3-0.7c0,0,0-0.1,0.1-0.2c0.1,0.4,0.3,0.7,0.4,1c0.2,0.5,0.4,1,0.6,1.5
							c0.2,0.5,0.4,1,0.6,1.5c0,0.1,0.1,0.2,0.2,0.2c1.4,0,2.8,0.1,4.1,0.2c0.1,0,0.1,0,0.2,0c-0.1,0.1-0.2,0.1-0.2,0.2
							c-1,0.8-2,1.6-3.1,2.4c-0.2,0.2-0.2,0.2-0.2,0.5c0.3,1,0.5,2,0.8,3c0.1,0.3,0.2,0.7,0.3,1c0,0,0,0.1,0,0.1
							c-0.3-0.2-0.6-0.4-0.8-0.5c-0.6-0.4-1.1-0.8-1.7-1.1c-0.4-0.3-0.7-0.5-1.1-0.7c-0.1-0.1-0.2-0.1-0.3,0
							c-1.2,0.8-2.3,1.6-3.5,2.4c0,0-0.1,0-0.1,0c0.1-0.3,0.1-0.5,0.2-0.7c0.2-0.7,0.4-1.5,0.6-2.2c0.1-0.4,0.2-0.9,0.4-1.3
							c0-0.1,0-0.1,0-0.2c-0.8-0.6-1.6-1.3-2.5-1.9C44.8,57,44.4,56.8,44.1,56.5z"/>
					</g>
				</g>
				<g id="VxsX7h.tif_10_">
					<g>
						<path class="st2" d="M66.5,57.1c0.1,0,0.1,0,0.1,0c0.7,0,1.5-0.1,2.2-0.1c0.3,0,0.7,0,1,0c0,0,0.1,0,0.1-0.1
							c0.3-0.8,0.6-1.6,0.9-2.5c0.1-0.2,0.1-0.4,0.2-0.5c0,0,0-0.1,0-0.1c0.1,0.3,0.2,0.5,0.3,0.8c0.1,0.4,0.3,0.8,0.4,1.1
							c0.1,0.4,0.3,0.8,0.4,1.2c0,0.1,0.1,0.1,0.2,0.1c1,0,2.1,0.1,3.1,0.1c0,0,0.1,0,0.2,0c-0.1,0.1-0.1,0.1-0.2,0.2
							c-0.8,0.6-1.5,1.2-2.3,1.8C73,59.2,73,59.2,73,59.4c0.2,0.7,0.4,1.5,0.6,2.2c0.1,0.2,0.1,0.5,0.2,0.7c0,0,0,0,0,0.1
							c-0.2-0.1-0.4-0.3-0.6-0.4c-0.4-0.3-0.8-0.6-1.3-0.8c-0.3-0.2-0.5-0.4-0.8-0.5c-0.1,0-0.1,0-0.2,0c-0.9,0.6-1.8,1.2-2.6,1.8
							c0,0,0,0-0.1,0c0-0.2,0.1-0.4,0.2-0.5c0.2-0.5,0.3-1.1,0.5-1.6c0.1-0.3,0.2-0.7,0.3-1c0-0.1,0-0.1,0-0.1
							c-0.6-0.5-1.2-1-1.8-1.4C67.1,57.5,66.8,57.3,66.5,57.1z"/>
					</g>
				</g>
				<path class="st0" d="M50,44.3c2.1,0,4.2,0.1,6.2,0.2V0.2C54.3,0.1,52.4,0,50.3,0c-2.8,0-5.5,0.1-8,0.4v44.2
					C44.8,44.3,47.4,44.3,50,44.3z"/>
				<path class="st0" d="M72,47.1c3.7,1,6.4,2.3,8,3.8h0.2V6.8c-3.5-1.9-8.1-3.6-13.9-4.8v43.9C68.4,46.2,70.3,46.6,72,47.1z"/>
			</g>
			<path class="st1" d="M0,65.7l0.1,5.2c1.4,0.3,3,0.6,4.7,0.8c9.3,1.5,24.4,3.4,43.5,3.4c26.5,0,42.3-1.9,51.4-3.6v-5.8h0
				c0-0.2-0.1-0.5-0.2-0.7c-0.5-1.2-1.8-1.8-3.1-1.3c-0.2,0.1-0.5,0.2-0.8,0.3c-3.7,1.5-15,6.2-47.2,6.2c-14.6,0-26.2-1.8-33.2-3.4
				c-7.7-1.7-12-3.4-12-3.4c-1.2-0.5-2.6,0.1-3.1,1.3C0.1,65,0,65.2,0,65.4l0,0L0,65.7C0,65.6,0,65.7,0,65.7z"/>
		</g>
		<path class="st3" d="M218.1,40.1c-0.4,1.2-0.7,2.4-1.2,3.5c-2,4.8-4,9.5-6.1,14.3c-0.5,1.1-1,2.2-1.5,3.3
			c-0.2,0.5-0.6,0.8-1.2,0.8c-1.2,0-2.3,0.1-3.5,0c-0.4,0-1-0.4-1.2-0.7c-2.2-4.9-4.4-9.7-6.5-14.6c-0.8-1.8-1.2-3.7-1.9-5.6
			c-0.1-0.3-0.2-0.6-0.3-0.9c-0.1,0-0.2,0-0.2,0c0,0.3,0,0.7,0,1c0.8,8.7,0.8,17.4,0.8,26.1c0,1.7,0,1.7-1.7,1.7c-2.1,0-4.2,0-6.3,0
			c-0.9,0-1.3-0.3-1.3-1.2c0-16.2,0-32.3,0-48.5c0-0.9,0.3-1.3,1.2-1.3c2,0,4,0,6,0c0.7,0,1,0.2,1.3,0.8c3.5,8.4,7,16.8,10.5,25.3
			c0.5,1.2,0.8,2.4,1.2,3.9c0.1-0.4,0.2-0.6,0.3-0.8c1.5-3.9,3-7.8,4.6-11.7c2.3-5.5,4.6-11,6.9-16.5c0.3-0.7,0.6-1,1.3-1
			c2,0,4,0,6,0c0.9,0,1.2,0.4,1.2,1.3c0,16.1,0,32.2,0,48.4c0,1.2-0.1,1.3-1.3,1.3c-2.2,0-4.5,0-6.7,0c-0.9,0-1.3-0.3-1.2-1.2
			c0.2-8,0.4-16.1,0.7-24.2c0-1.2,0.2-2.3,0.2-3.5C218.3,40.1,218.2,40.1,218.1,40.1z"/>
		<path class="st3" d="M179.4,67.4c-3-9.7-5.9-19.4-8.8-29.1c-2-6.4-3.9-12.8-5.9-19.3c-0.2-0.8-0.6-1-1.4-1c-1.6,0-3.3,0.1-4.9,0
			c-0.9,0-1.2,0.3-1.5,1.1c-2.9,9.5-5.8,19-8.6,28.4c-2,6.7-4.1,13.4-6.1,20.1c-0.3,1-0.1,1.3,1,1.3c2.5,0,5,0,7.5,0
			c0.7,0,1-0.3,1.2-1c0.7-2.5,1.4-5,2.1-7.5c0.2-0.8,0.6-1.1,1.4-1.1c3.6,0,7.2,0,10.7,0c0.8,0,1.2,0.3,1.4,1.1
			c0.7,2.5,1.4,5,2.1,7.5c0.2,0.7,0.6,1,1.3,1c1.3,0,2.5,0,3.8,0c1.2,0,2.3,0,3.5,0C179.7,69,179.8,68.8,179.4,67.4z M164.2,50.8
			c-0.3,0.1-0.6,0.1-0.6,0.1c-1.9,0-3.7,0-5.6,0c-0.2,0-0.3,0-0.4,0c-1,0-0.5-1.2-0.5-1.2l3.7-15.7c0,0,2.6,10.9,3.5,14.8
			c0.1,0.3,0.2,0.6,0.2,0.9c0,0.1,0.1,0.3,0.1,0.4c0,0.2,0,0.4,0,0.5c0,0,0,0,0,0c0,0,0,0,0,0C164.4,50.7,164.3,50.8,164.2,50.8z"/>
		<path class="st3" d="M129.4,42.2c-1.5-1-3-1.8-4.5-2.6c-2.3-1.2-4.7-2.2-7.1-3.3c-1.8-0.9-3.2-2.2-3.3-4.4c-0.2-2.3,0.9-4,2.7-5.2
			c2.9-2,7.2-1,9.1,1.9c0.4,0.6,0.7,1.2,0.9,1.8c0.3,0.7,0.7,0.8,1.4,0.5c2.2-1.2,4.4-2.3,6.6-3.4c0.6-0.3,0.8-0.7,0.5-1.3
			c-1-2-2.2-3.8-3.6-5.2c0,0-0.3-0.3-0.8-0.7c-0.2-0.2-0.5-0.4-0.8-0.6h0c-0.7-0.5-1.7-1-2.8-1.5c0,0,0,0,0,0
			c-0.1,0-0.2-0.1-0.2-0.1c-0.1,0-0.2-0.1-0.3-0.1c0,0-0.1,0-0.1,0c-0.1,0-0.2-0.1-0.3-0.1c0,0-0.1,0-0.1,0c-0.1,0-0.2-0.1-0.3-0.1
			c-0.1,0-0.1,0-0.2,0c-0.1,0-0.2,0-0.3-0.1c-0.1,0-0.1,0-0.2,0c-0.1,0-0.2,0-0.3-0.1c-0.1,0-0.2,0-0.3,0c-0.1,0-0.2,0-0.3,0
			c-0.1,0-0.2,0-0.3,0c-0.1,0-0.1,0-0.2,0c-0.2,0-0.4,0-0.6,0l0,0l0,0c-1.6-0.1-2.9-0.2-4-0.1l0,0c-0.6,0-1.1,0.1-1.6,0.1h0
			c-0.1,0-0.2,0-0.3,0c0,0,0,0,0,0c-0.1,0-0.2,0-0.3,0c0,0,0,0,0,0c-0.1,0-0.2,0-0.3,0c0,0,0,0,0,0c-0.4,0.1-0.7,0.1-1,0.2
			c0,0,0,0-0.1,0c-0.1,0-0.1,0-0.2,0c0,0-0.1,0-0.1,0c0,0-0.1,0-0.2,0c0,0-0.1,0-0.1,0c0,0-0.1,0-0.2,0c0,0-0.1,0-0.1,0
			c0,0-0.1,0-0.1,0c-0.3,0.1-0.6,0.2-0.9,0.3v0c-0.4,0.2-0.8,0.3-1.2,0.5c0,0,0,0,0,0c-0.1,0-0.2,0.1-0.2,0.1
			c-7.2,3.6-9,12.4-6.1,19c1.4,3.2,4,5.3,7,7c3.1,1.7,6.3,3.2,9.4,4.9c0.8,0.4,1.6,1,2.3,1.6c1.9,1.7,2.5,4,1.6,6.3
			c-0.1,0.2-0.2,0.5-0.3,0.7l0,0c0,0-0.6,1.5-2.5,2.5c-0.1,0.1-0.3,0.1-0.4,0.2l0,0c-2.3,1-5,0.8-6.7,0.3l0,0
			c-0.6-0.2-1.2-0.4-1.7-0.8c-0.5-0.4-0.7-0.7-0.7-0.7l0,0c-0.3-0.3-0.5-0.6-0.7-1l0,0l0,0c-0.4-0.6-0.8-1.3-1.2-1.9
			c-0.3-0.5-0.6-0.8-1.2-0.5c-2.3,1.2-4.6,2.3-6.9,3.5c-0.5,0.3-0.7,0.6-0.4,1.2c1.9,3.8,4.5,6.9,8.8,8.2c3.6,1.1,7.2,0.9,10.8,0.6
			c1.9-0.2,3.8-0.7,5.5-1.5c4.5-2.2,6.8-6,7.2-11C137,50.8,134.8,45.7,129.4,42.2z"/>
		<g id="VxsX7h.tif_9_">
			<g>
				<path class="st0" d="M230.9,63.2c0.1,0,0.2,0,0.2,0c1.4-0.1,2.8-0.1,4.3-0.2c0.6,0,1.3,0,1.9-0.1c0.1,0,0.2-0.1,0.2-0.1
					c0.6-1.6,1.2-3.2,1.8-4.7c0.1-0.3,0.3-0.7,0.4-1c0-0.1,0-0.1,0.1-0.2c0.2,0.5,0.4,1,0.6,1.5c0.3,0.7,0.5,1.5,0.8,2.2
					c0.3,0.7,0.6,1.5,0.8,2.2c0.1,0.2,0.1,0.2,0.3,0.2c2,0.1,4,0.1,6,0.2c0.1,0,0.2,0,0.3,0c-0.1,0.1-0.2,0.2-0.3,0.3
					c-1.5,1.2-2.9,2.3-4.4,3.5c-0.3,0.3-0.3,0.3-0.2,0.7c0.4,1.4,0.8,2.8,1.2,4.3c0.1,0.5,0.3,0.9,0.4,1.4c0,0,0,0.1,0,0.2
					c-0.4-0.3-0.8-0.5-1.2-0.8c-0.8-0.5-1.6-1.1-2.5-1.6c-0.5-0.4-1.1-0.7-1.6-1.1c-0.2-0.1-0.3-0.1-0.4,0c-1.7,1.1-3.4,2.3-5.1,3.4
					c0,0-0.1,0-0.2,0.1c0.1-0.4,0.2-0.7,0.3-1c0.3-1.1,0.6-2.1,0.9-3.2c0.2-0.6,0.3-1.3,0.5-1.9c0-0.1,0-0.2-0.1-0.3
					c-1.2-0.9-2.3-1.8-3.5-2.8C231.9,64,231.4,63.6,230.9,63.2z"/>
			</g>
		</g>
		<g>
			<path class="st3" d="M268.2,29.6c0.7,0.1,1.4,0.1,2,0.3c4.3,0.8,7.4,3.3,9.4,7.1c0.9,1.7,1.5,3.6,1.9,5.5c0,0,0,0.1,0,0.2
				c-1.2,0-2.5,0-3.7,0c-0.1-0.5-0.3-1-0.4-1.5c-0.4-1.5-1.1-3-2-4.3c-1.4-1.9-3.2-3.1-5.5-3.6c-2.4-0.5-4.7-0.3-6.9,0.5
				c-1.8,0.7-3.2,1.8-4.3,3.4c-1.5,2.2-2.3,4.6-2.7,7.2c-0.6,3.2-0.6,6.5-0.3,9.8c0.2,2.4,0.7,4.7,1.7,6.9c0.9,2.1,2.3,3.9,4.3,5.1
				c1.1,0.7,2.3,1,3.6,1.2c2,0.3,4.1,0.2,6-0.4c1.7-0.6,3.1-1.6,4.2-3.1c1.5-1.9,2.2-4.2,2.6-6.5c0.3-1.6,0.4-3.2,0.6-4.8
				c0-0.2,0-0.3,0-0.5c-3.8,0-7.5,0-11.3,0c0-1.1,0-2.2,0-3.3c5,0,10,0,15.1,0c0,0.3,0.1,0.5,0.1,0.8c0.1,3-0.2,5.9-0.8,8.8
				c-0.7,2.8-1.7,5.4-3.4,7.7c-2.2,2.8-5,4.3-8.4,4.8c-0.7,0.1-1.3,0.1-2,0.2c-0.3,0-0.6,0-0.9,0c-0.7-0.1-1.4-0.1-2-0.2
				c-3.7-0.5-6.8-2.3-9-5.3c-1.6-2.1-2.6-4.5-3.2-7c-0.6-2.2-0.8-4.4-0.9-6.6c0-0.4,0-0.8-0.1-1.2c0-0.2,0-0.4,0-0.6
				c0-0.1,0-0.3,0.1-0.4c0.1-1.5,0.2-3,0.4-4.5c0.4-3.2,1.4-6.3,3.2-9.1c2.3-3.5,5.4-5.6,9.5-6.2c0.5-0.1,1-0.1,1.5-0.2
				C267,29.6,267.6,29.6,268.2,29.6z"/>
			<path class="st3" d="M302.9,70.9c-0.7-0.1-1.4-0.1-2-0.2c-3.5-0.5-6.4-2.1-8.7-4.8c-1.7-2-2.7-4.4-3.4-6.9c-0.6-2-0.9-4-1-6.1
				c-0.2-2.3-0.1-4.6,0.2-7c0.4-3,1.1-5.9,2.5-8.6c1.8-3.4,4.4-5.9,8.2-7c1.1-0.3,2.2-0.4,3.3-0.6c0.1,0,0.2,0,0.3-0.1
				c0.7,0,1.4,0,2.2,0c0.7,0.1,1.3,0.2,2,0.3c4,0.7,7.1,2.9,9.2,6.4c1.4,2.3,2.2,4.8,2.8,7.3c0.5,2.5,0.7,5,0.6,7.5
				c-0.1,2.4-0.3,4.8-0.9,7.1c-0.7,2.8-1.8,5.5-3.7,7.8c-2,2.4-4.6,4-7.7,4.6c-0.9,0.2-1.8,0.2-2.6,0.3c-0.1,0-0.2,0-0.3,0
				C303.5,70.9,303.2,70.9,302.9,70.9z M315.2,50.1c0-1.9-0.1-3.9-0.5-5.9c-0.4-2.5-1.2-4.8-2.6-6.9c-1.4-2-3.3-3.4-5.7-4
				c-2.4-0.5-4.7-0.5-7.1,0.3c-1.9,0.7-3.5,1.9-4.7,3.5c-1.7,2.4-2.4,5.2-2.9,8.1c-0.3,2.2-0.4,4.4-0.3,6.6c0.1,1.8,0.3,3.6,0.6,5.4
				c0.4,2.1,1.1,4,2.3,5.8c1.5,2.2,3.6,3.6,6.2,4.1c2.1,0.4,4.2,0.4,6.3-0.3c1.6-0.5,3-1.3,4.1-2.5c1.7-1.8,2.6-3.9,3.2-6.2
				C315,55.6,315.2,53,315.2,50.1z"/>
			<path class="st3" d="M352.5,30.5c-0.3,0.9-0.6,1.8-0.9,2.6c-4.2,12.2-8.3,24.4-12.4,36.6c-0.1,0.3-0.2,0.3-0.5,0.3
				c-1,0-2.1,0-3.1,0c-0.3,0-0.4-0.1-0.5-0.3c-2.9-8.6-5.9-17.2-8.8-25.8c-1.5-4.4-3-8.7-4.5-13.1c0-0.1-0.1-0.2-0.1-0.3
				c0.1,0,0.2,0,0.3,0c1.1,0,2.2,0,3.4,0c0.2,0,0.3,0.1,0.4,0.3c3.7,11.1,7.4,22.2,11.1,33.2c0,0.1,0.1,0.2,0.2,0.4
				c0-0.1,0.1-0.2,0.1-0.3c3.7-11,7.4-22.1,11.1-33.1c0.1-0.3,0.3-0.5,0.6-0.5C350.2,30.5,351.3,30.5,352.5,30.5z"/>
		</g>
	</g>
	<g>
		<path class="st4" d="M232.2,26.6c0.1-1.2,0.2-3,0.2-4.6V0.3h3.2v11.3h0.1c1.2-2,3.2-3.3,6.1-3.3c4.4,0,7.6,3.7,7.6,9.2
			c0,6.4-4,9.6-8,9.6c-2.6,0-4.7-1-6-3.4h-0.1l-0.2,3L232.2,26.6L232.2,26.6z M235.6,19.4c0,0.4,0.1,0.8,0.2,1.2
			c0.6,2.3,2.5,3.8,4.9,3.8c3.4,0,5.5-2.8,5.5-6.9c0-3.6-1.8-6.7-5.3-6.7c-2.2,0-4.3,1.5-5,4c-0.1,0.4-0.2,0.8-0.2,1.3L235.6,19.4
			L235.6,19.4z"/>
		<path class="st4" d="M255.3,18.2c0.1,4.4,2.9,6.2,6.2,6.2c2.3,0,3.7-0.4,5-0.9l0.6,2.3c-1.2,0.5-3.1,1.1-6,1.1
			c-5.5,0-8.8-3.6-8.8-9s3.2-9.7,8.4-9.7c5.9,0,7.4,5.1,7.4,8.4c0,0.7-0.1,1.2-0.1,1.5H255.3z M264.8,15.9c0-2.1-0.8-5.3-4.5-5.3
			c-3.3,0-4.7,3-5,5.3H264.8z"/>
		<path class="st4" d="M275.9,3.5v5.1h4.7v2.5h-4.7v9.7c0,2.2,0.6,3.5,2.4,3.5c0.8,0,1.5-0.1,1.9-0.2l0.2,2.5
			c-0.6,0.3-1.6,0.4-2.9,0.4c-1.5,0-2.7-0.5-3.5-1.4c-0.9-1-1.3-2.6-1.3-4.7v-9.8H270V8.6h2.8V4.3L275.9,3.5z"/>
		<path class="st4" d="M294.2,26.6l-0.3-2.3h-0.1c-1,1.4-2.9,2.7-5.5,2.7c-3.6,0-5.5-2.6-5.5-5.2c0-4.3,3.8-6.7,10.8-6.7v-0.4
			c0-1.5-0.4-4.2-4.1-4.2c-1.7,0-3.4,0.5-4.7,1.3l-0.7-2.1c1.5-1,3.6-1.6,5.9-1.6c5.5,0,6.8,3.7,6.8,7.3v6.7c0,1.6,0.1,3.1,0.3,4.3
			L294.2,26.6L294.2,26.6z M293.7,17.4c-3.6-0.1-7.6,0.6-7.6,4c0,2.1,1.4,3.1,3.1,3.1c2.3,0,3.8-1.5,4.3-3c0.1-0.3,0.2-0.7,0.2-1
			L293.7,17.4L293.7,17.4z"/>
	</g>
</g>
</svg>
