<svg id="Layer_1" data-name="Layer 1" xmlns="http://www.w3.org/2000/svg" viewBox="0 0 160 132"><defs><style>.cls-1{fill:#cc202a;}.cls-1,.cls-3{fill-rule:evenodd;}.cls-2,.cls-3{fill:#112f4f;}.cls-4{fill:#0f2e4e;}</style></defs><path class="cls-1" d="M46.6,57.06c2-.57,4.26-1.06,6.63-1.48V1.82A68,68,0,0,0,36.28,7.45v54.6h.12c1.86-1.93,5.29-3.62,10.2-5Z" transform="translate(0)"/><path class="cls-2" d="M110.16,68.67C110,63,93.43,58.42,73,58.42S36.09,63,35.92,68.67h0V80.26a246.46,246.46,0,0,0,35.47,2.48,306.74,306.74,0,0,0,38.78-2v-12ZM52.77,69.84,50,72.05c-.22.17-.21.17-.14.43.26.89.51,1.79.76,2.69.08.29.17.59.25.89a.75.75,0,0,1,0,.11l-.74-.49-1.55-1c-.34-.22-.68-.44-1-.67a.2.2,0,0,0-.25,0l-3.2,2.15a.3.3,0,0,1-.1.05c.06-.24.12-.45.18-.66.18-.67.37-1.33.56-2l.33-1.2a.12.12,0,0,0,0-.16l-2.23-1.75-.93-.73.15,0,2.69-.11,1.19,0a.23.23,0,0,0,.11-.08c.37-1,.73-2,1.1-3,.08-.23.16-.44.24-.66,0,0,0-.08.06-.14.13.33.25.64.36.94L48.31,68c.17.46.35.93.52,1.4,0,.1.08.14.19.14l3.77.13.2,0Zm27.95-.72-3.74,3c-.28.22-.28.22-.18.57l1,3.61c.11.4.22.8.34,1.2,0,0,0,.08,0,.15l-1-.65-2.08-1.39c-.45-.3-.91-.59-1.36-.9a.26.26,0,0,0-.33,0l-4.3,2.89-.14.06.25-.88c.24-.9.49-1.79.74-2.68.15-.54.3-1.08.46-1.62a.17.17,0,0,0-.07-.21c-1-.78-2-1.56-3-2.35l-1.25-1,.21,0c1.2-.06,2.41-.11,3.61-.15l1.59-.07a.21.21,0,0,0,.15-.11c.5-1.33,1-2.67,1.48-4l.33-.88a.87.87,0,0,1,.08-.19c.16.45.32.85.47,1.26l.69,1.86.7,1.89a.25.25,0,0,0,.25.19l5.06.17.27,0Zm23.71.72-2.79,2.21c-.21.17-.21.17-.13.43.25.89.5,1.79.76,2.69.08.29.16.59.25.89a.75.75,0,0,1,0,.11l-.74-.49-1.56-1-1-.67A.2.2,0,0,0,99,74l-3.2,2.15-.11.05c.07-.24.13-.45.18-.66.19-.67.38-1.33.56-2,.11-.4.22-.8.34-1.2a.13.13,0,0,0-.05-.16l-2.23-1.75-.93-.73.16,0,2.69-.11,1.18,0a.19.19,0,0,0,.11-.08l1.11-3c.08-.23.16-.44.24-.66a.73.73,0,0,1,.06-.14l.35.94c.17.46.34.92.52,1.39s.35.93.52,1.4a.16.16,0,0,0,.18.14l3.77.13.2,0Z" transform="translate(0)"/><path class="cls-1" d="M73.4,54c2.56,0,5.07.08,7.52.21V.22C78.64.08,76.25,0,73.75,0,70.28,0,67,.15,64,.42V54.33c3-.22,6.21-.34,9.43-.34Z" transform="translate(0)"/><path class="cls-1" d="M100.21,57.46c4.56,1.27,7.86,2.83,9.79,4.59h.29V8.26a64.94,64.94,0,0,0-17-5.88V56c2.46.42,4.77.93,6.87,1.51Z" transform="translate(0)"/><path class="cls-3" d="M12.3,80.15l.08,6.35c1.76.34,3.67.68,5.75,1a328.68,328.68,0,0,0,53.15,4.12c32.43,0,51.6-2.26,62.83-4.4V80.12h0a2.64,2.64,0,0,0-.19-.82,2.89,2.89,0,0,0-3.75-1.64l-1,.39c-4.54,1.87-18.35,7.57-57.65,7.57a193.26,193.26,0,0,1-40.6-4.13,103.14,103.14,0,0,1-14.66-4.13A2.89,2.89,0,0,0,12.51,79a2.63,2.63,0,0,0-.2.86h0v.31Z" transform="translate(0)"/><path class="cls-2" d="M67.25,112.35c-.23.69-.41,1.4-.69,2.07-1.18,2.81-2.39,5.61-3.58,8.41-.29.66-.6,1.31-.88,2a.65.65,0,0,1-.69.46c-.68,0-1.37,0-2,0a.94.94,0,0,1-.68-.43c-1.31-2.86-2.61-5.72-3.84-8.61-.46-1-.74-2.18-1.1-3.28a4.6,4.6,0,0,0-.19-.52h-.14c0,.21,0,.41,0,.61.46,5.11.49,10.23.46,15.35,0,1,0,1-1,1-1.24,0-2.47,0-3.71,0-.53,0-.75-.17-.75-.72q0-14.25,0-28.51c0-.52.16-.76.72-.75,1.18,0,2.36,0,3.53,0a.73.73,0,0,1,.78.5c2.06,5,4.15,9.91,6.21,14.88.29.69.45,1.43.71,2.27.08-.24.12-.37.17-.5.9-2.3,1.78-4.62,2.72-6.91,1.33-3.23,2.72-6.45,4.06-9.68a.74.74,0,0,1,.79-.56c1.18,0,2.36,0,3.53,0,.56,0,.72.21.72.74q0,14.24,0,28.46c0,.71-.07.77-.79.77-1.31,0-2.62,0-3.93,0-.51,0-.74-.17-.73-.69q.19-7.11.4-14.21c0-.69.09-1.38.13-2.08l-.15,0Z" transform="translate(0)"/><path class="cls-2" d="M44.42,128.41q-2.6-8.55-5.22-17.1c-1.15-3.78-2.31-7.56-3.45-11.35a.7.7,0,0,0-.8-.59q-1.46,0-2.91,0a.75.75,0,0,0-.87.66q-2.54,8.35-5.1,16.72-1.8,5.93-3.59,11.84c-.18.61-.07.75.57.75H27.5a.66.66,0,0,0,.72-.56c.4-1.48.84-2.95,1.24-4.43a.72.72,0,0,1,.82-.64q3.16,0,6.33,0a.72.72,0,0,1,.83.63c.4,1.48.85,3,1.26,4.43a.67.67,0,0,0,.77.57c.74,0,1.48,0,2.22,0h2.05c.86,0,.93-.09.68-.93Zm-9-9.73a1,1,0,0,1-.34,0q-1.65,0-3.3,0l-.23,0c-.61,0-.33-.68-.33-.68l2.19-9.26s1.52,6.42,2,8.7l.14.54c0,.08,0,.16,0,.22a.45.45,0,0,1,0,.29h0a0,0,0,0,1,0,0,.28.28,0,0,1-.18.13Z" transform="translate(0)"/><path class="cls-2" d="M15,113.58a26.86,26.86,0,0,0-2.66-1.52c-1.38-.68-2.8-1.27-4.17-2a3.1,3.1,0,0,1-2-2.59,3.27,3.27,0,0,1,1.6-3.07,3.94,3.94,0,0,1,5.36,1.13,7,7,0,0,1,.55,1.05c.18.41.41.48.8.28,1.3-.68,2.59-1.34,3.9-2a.49.49,0,0,0,.27-.77,10.26,10.26,0,0,0-2.14-3,4.61,4.61,0,0,0-.49-.43q-.23-.18-.45-.33h0a8.27,8.27,0,0,0-1.67-.86h0l-.14,0-.2-.07-.06,0-.2-.06-.08,0-.19,0-.1,0-.19-.05-.12,0-.17,0-.15,0-.16,0L12,99l-.12,0-.33,0h0a22.77,22.77,0,0,0-2.37-.07h0c-.34,0-.64,0-.93.07h0L8,99H8l-.16,0h0l-.15,0h0l-.62.14H7l-.11,0h0l-.09,0-.06,0-.09,0-.06,0-.09,0L6,99.51H6a7.33,7.33,0,0,0-.7.29h0l-.12.06C.86,102-.2,107.13,1.54,111a8.79,8.79,0,0,0,4.12,4.09c1.83,1,3.71,1.9,5.55,2.86a7.92,7.92,0,0,1,1.36.92,3.24,3.24,0,0,1,1,3.71,2.93,2.93,0,0,1-.19.4h0a2.94,2.94,0,0,1-1.5,1.45l-.24.11h0a6.5,6.5,0,0,1-4,.17h0a2.5,2.5,0,0,1-1-.49,1.74,1.74,0,0,1-.41-.44h0c-.15-.18-.28-.37-.41-.56h0c-.25-.36-.47-.75-.7-1.12s-.34-.49-.72-.3c-1.34.69-2.7,1.37-4.05,2a.46.46,0,0,0-.23.7,8.44,8.44,0,0,0,5.16,4.81,16.16,16.16,0,0,0,6.38.35,9.67,9.67,0,0,0,3.25-.91,7.42,7.42,0,0,0,4.25-6.47A8.84,8.84,0,0,0,15,113.58Z" transform="translate(0)"/><path class="cls-1" d="M74.75,125.94l.14,0,2.51-.11,1.11,0s.09,0,.1-.08c.35-.93.69-1.86,1-2.79.08-.2.15-.41.23-.61,0,0,0-.07,0-.13.12.31.23.59.33.88l.48,1.29c.16.44.33.87.49,1.31a.16.16,0,0,0,.17.13l3.52.12.19,0-.21.17-2.59,2.06c-.2.15-.2.16-.13.4.24.83.47,1.67.71,2.5.08.28.15.56.23.84a.56.56,0,0,1,0,.1l-.69-.45-1.45-1-.94-.63a.17.17,0,0,0-.23,0l-3,2-.09,0c.06-.22.11-.42.17-.61.17-.63.34-1.25.52-1.87.1-.37.2-.75.31-1.12a.12.12,0,0,0,0-.15l-2.08-1.63-.87-.68Z" transform="translate(0)"/><path class="cls-2" d="M96.76,106.18c.4,0,.8.08,1.2.15a7.59,7.59,0,0,1,5.56,4.18,12.76,12.76,0,0,1,1.15,3.22.4.4,0,0,1,0,.11h-2.2c-.07-.29-.15-.58-.23-.86a7.9,7.9,0,0,0-1.2-2.56,5.19,5.19,0,0,0-3.24-2.09,7.31,7.31,0,0,0-4.09.29,5.51,5.51,0,0,0-2.56,2,9.88,9.88,0,0,0-1.6,4.22,22.15,22.15,0,0,0-.17,5.75,13,13,0,0,0,1,4.06,6.25,6.25,0,0,0,2.56,3,5.84,5.84,0,0,0,2.1.73,7.58,7.58,0,0,0,3.54-.26,5.17,5.17,0,0,0,2.49-1.82,8.57,8.57,0,0,0,1.55-3.83c.16-.94.23-1.9.34-2.84,0-.1,0-.19,0-.31H96.3v-2h8.89c0,.16,0,.32,0,.48a21.06,21.06,0,0,1-.49,5.19,11.39,11.39,0,0,1-2,4.5,7.4,7.4,0,0,1-5,2.84l-1.17.12H96c-.41,0-.81-.07-1.21-.12a7.78,7.78,0,0,1-5.31-3.1,11.44,11.44,0,0,1-1.9-4.13,18.41,18.41,0,0,1-.54-3.9c0-.24,0-.47,0-.7v-.37a2,2,0,0,0,0-.24c.07-.89.11-1.78.22-2.66a12.64,12.64,0,0,1,1.86-5.33,7.81,7.81,0,0,1,5.62-3.64l.89-.12Z" transform="translate(0)"/><path class="cls-2" d="M117.18,130.49c-.4,0-.81-.07-1.21-.12a7.78,7.78,0,0,1-5.12-2.86,11,11,0,0,1-2-4.06,17.3,17.3,0,0,1-.59-3.56,22.35,22.35,0,0,1,.09-4.09,14.2,14.2,0,0,1,1.48-5.06,7.91,7.91,0,0,1,4.82-4.15,18.79,18.79,0,0,1,2-.37l.2,0h1.28c.38.06.77.09,1.15.16a7.8,7.8,0,0,1,5.43,3.75,12.76,12.76,0,0,1,1.62,4.33,20.46,20.46,0,0,1,.36,4.42,18.89,18.89,0,0,1-.52,4.17A11.27,11.27,0,0,1,124,127.6a7.62,7.62,0,0,1-4.52,2.68c-.51.1-1,.12-1.55.18l-.17,0Zm7.25-12.21a21,21,0,0,0-.28-3.49,10,10,0,0,0-1.54-4.08,5.52,5.52,0,0,0-3.37-2.33,7.49,7.49,0,0,0-4.17.17,5.51,5.51,0,0,0-2.76,2.09,10.38,10.38,0,0,0-1.69,4.75,22.22,22.22,0,0,0-.16,3.91,17,17,0,0,0,.37,3.18,9.46,9.46,0,0,0,1.39,3.42,5.63,5.63,0,0,0,3.66,2.43,7.56,7.56,0,0,0,3.72-.15,5.38,5.38,0,0,0,2.43-1.49A8.1,8.1,0,0,0,123.9,123a19.55,19.55,0,0,0,.53-4.75Z" transform="translate(0)"/><path class="cls-2" d="M146.41,106.71l-.52,1.53q-3.66,10.76-7.33,21.53a.24.24,0,0,1-.27.19c-.61,0-1.21,0-1.82,0a.24.24,0,0,1-.28-.2L131,114.59c-.88-2.56-1.76-5.13-2.63-7.69,0-.05,0-.11-.05-.17l.16,0h2a.2.2,0,0,1,.24.17l6.57,19.56a.45.45,0,0,0,.13.21c0-.07,0-.13.07-.19q3.25-9.75,6.51-19.49a.32.32,0,0,1,.37-.27c.67,0,1.34,0,2.06,0Z" transform="translate(0)"/><path class="cls-4" d="M153.7,111.34h.59c.68,0,1.24-.23,1.24-.8s-.36-.83-1.15-.83a3.2,3.2,0,0,0-.68.06v1.57Zm0,3.1h-1.24V109a10.65,10.65,0,0,1,2-.16,3.22,3.22,0,0,1,1.86.4,1.5,1.5,0,0,1,.53,1.2,1.39,1.39,0,0,1-1.11,1.26v.07a1.62,1.62,0,0,1,1,1.33,4.16,4.16,0,0,0,.39,1.37h-1.34a4.71,4.71,0,0,1-.43-1.33c-.09-.61-.42-.87-1.11-.87h-.58v2.2Zm-3.3-2.87a4.19,4.19,0,0,0,4.18,4.37,4.14,4.14,0,0,0,4.08-4.33,4.14,4.14,0,1,0-8.26,0Zm9.63,0a5.5,5.5,0,1,1-5.49-5.47,5.43,5.43,0,0,1,5.49,5.47Z" transform="translate(0)"/></svg>